<svg viewBox="-1 -1 32 32" fill="none" xmlns="http://www.w3.org/2000/svg" id="Calendar--Streamline-Solar-Broken" height="32" width="32"><desc>Calendar Streamline Icon: https://streamlinehq.com</desc><path d="M17.5 27.5h-5c-4.71405 0 -7.0710625 0 -8.5355375 -1.4645C2.5 24.571125000000002 2.5 22.214 2.5 17.5v-2.5c0 -4.71405 0 -7.0710625 1.4644625 -8.5355375C5.4289375 5 7.785950000000001 5 12.5 5h5c4.7139999999999995 0 7.071125 0 8.5355 1.4644625C27.5 7.9289375 27.5 10.28595 27.5 15v2.5c0 4.7139999999999995 0 7.071125 -1.4645 8.5355 -0.8165 0.8165 -1.910375 1.17775 -3.5355 1.337625" stroke="#324b4c" stroke-linecap="round" stroke-width="2"></path><path d="M8.75 5V3.125" stroke="#324b4c" stroke-linecap="round" stroke-width="2"></path><path d="M21.25 5V3.125" stroke="#324b4c" stroke-linecap="round" stroke-width="2"></path><path d="M26.875 11.25H13.4375M2.5 11.25h4.84375" stroke="#324b4c" stroke-linecap="round" stroke-width="2"></path><path d="M22.5 21.25c0 0.690375 -0.559625 1.25 -1.25 1.25s-1.25 -0.559625 -1.25 -1.25 0.559625 -1.25 1.25 -1.25 1.25 0.559625 1.25 1.25Z" fill="#324b4c" stroke-width="2"></path><path d="M22.5 16.25c0 0.690375 -0.559625 1.25 -1.25 1.25s-1.25 -0.559625 -1.25 -1.25 0.559625 -1.25 1.25 -1.25 1.25 0.559625 1.25 1.25Z" fill="#324b4c" stroke-width="2"></path><path d="M16.25 21.25c0 0.690375 -0.559625 1.25 -1.25 1.25s-1.25 -0.559625 -1.25 -1.25 0.559625 -1.25 1.25 -1.25 1.25 0.559625 1.25 1.25Z" fill="#324b4c" stroke-width="2"></path><path d="M16.25 16.25c0 0.690375 -0.559625 1.25 -1.25 1.25s-1.25 -0.559625 -1.25 -1.25 0.559625 -1.25 1.25 -1.25 1.25 0.559625 1.25 1.25Z" fill="#324b4c" stroke-width="2"></path><path d="M10 21.25c0 0.690375 -0.55965 1.25 -1.25 1.25s-1.25 -0.559625 -1.25 -1.25 0.55965 -1.25 1.25 -1.25 1.25 0.559625 1.25 1.25Z" fill="#324b4c" stroke-width="2"></path><path d="M10 16.25c0 0.690375 -0.55965 1.25 -1.25 1.25s-1.25 -0.559625 -1.25 -1.25 0.55965 -1.25 1.25 -1.25 1.25 0.559625 1.25 1.25Z" fill="#324b4c" stroke-width="2"></path></svg>