<svg viewBox="-1 -1 32 32" fill="none" xmlns="http://www.w3.org/2000/svg" id="Close-Square--Streamline-Solar-Broken" height="32" width="32"><desc>Close Square Streamline Icon: https://streamlinehq.com</desc><path d="M18.125 11.875024999999999 11.875 18.125m-0.000025 -6.25 6.250025 6.25" stroke="#324b4c" stroke-linecap="round" stroke-width="2"></path><path d="M27.5 15c0 5.8925 0 8.838875 -1.830625 10.669375C23.838875 27.5 20.8925 27.5 15 27.5c-5.8925625 0 -8.8388375 0 -10.6694125 -1.830625C2.5 23.838875 2.5 20.8925 2.5 15c0 -5.8925625 0 -8.8388375 1.8305875 -10.6694125C6.1611625000000005 2.5 9.1074375 2.5 15 2.5c5.8925 0 8.838875 0 10.669375 1.8305875 1.21725 1.2171750000000001 1.6251250000000002 2.9276 1.76175 5.6694125" stroke="#324b4c" stroke-linecap="round" stroke-width="2"></path></svg>