<svg viewBox="-1 -1 32 32" fill="none" xmlns="http://www.w3.org/2000/svg" id="Danger-Triangle--Streamline-Solar-Broken" height="32" width="32"><desc>Danger Triangle Streamline Icon: https://streamlinehq.com</desc><path d="M7.8866000000000005 11.25C10.743675 6.25 12.4604 3.75 15 3.75c2.8883750000000004 0 4.712375 3.23395 8.360375 9.701875l0.45449999999999996 0.806c3.0315 5.374750000000001 4.54725 8.062125 3.17725 10.027124999999998C25.62225 26.25 22.233 26.25 15.454625 26.25h-0.9092500000000001c-6.778425 0 -10.1676625 0 -11.537550000000001 -1.965 -1.1891 -1.705625 -0.20400000000000001 -3.955625 2.0593375 -8.035" stroke="#c75f59" stroke-linecap="round" stroke-width="2"></path><path d="M15 10v6.25" stroke="#c75f59" stroke-linecap="round" stroke-width="2"></path><path fill="#c75f59" d="M13.75 20a1.25 1.25 0 1 0 2.5 0 1.25 1.25 0 1 0 -2.5 0" stroke-width="2"></path></svg>