<svg viewBox="-1.5 -1.5 48 48" fill="none" xmlns="http://www.w3.org/2000/svg" id="Trash-Bin-Trash--Streamline-Solar-Broken" height="48" width="48">
  <desc>
    Trash Bin Trash Streamline Icon: https://streamlinehq.com
  </desc>
  <path d="M38.4376875 11.25H6.5625" stroke="#192626" stroke-linecap="round" stroke-width="3"></path>
  <path d="m17.8125 20.625 0.9375 9.375" stroke="#192626" stroke-linecap="round" stroke-width="3"></path>
  <path d="m27.1875 20.625 -0.9375 9.375" stroke="#192626" stroke-linecap="round" stroke-width="3"></path>
  <path d="M12.1875 11.25c0.104775 0 0.1571625 0 0.20465624999999998 -0.0012000000000000001 1.54395 -0.03913125 2.9060062500000003 -1.02084375 3.4313812500000003 -2.4732 0.0161625 -0.04468125 0.03271875 -0.09436875 0.06584999999999999 -0.19378125l0.18204375 -0.5461125c0.15539999999999998 -0.46618125 0.2331 -0.69928125 0.33615 -0.89720625 0.4111875 -0.78961875 1.1719312499999999 -1.337925 2.0510625 -1.47830625C18.67899375 5.625 18.92475 5.625 19.4161875 5.625h6.167625c0.49143749999999997 0 0.73725 0 0.9575625000000001 0.035193749999999996 0.8791875 0.14038125 1.639875 0.6886875 2.0510625 1.47830625 0.103125 0.197925 0.18075 0.431025 0.3361875 0.89720625l0.18206250000000002 0.5461125c0.033 0.09928124999999999 0.049687499999999996 0.1491375 0.0658125 0.19378125 0.525375 1.45235625 1.8873749999999998 2.4340687500000002 3.4314375 2.4732C32.655375 11.25 32.7076875 11.25 32.8125 11.25" stroke="#192626" stroke-width="3"></path>
  <path d="M34.4503125 28.8733125c-0.331875 4.9779375 -0.49781250000000005 7.4670000000000005 -2.1196875 8.98425C30.708750000000002 39.375 28.21425 39.375 23.22525 39.375h-1.4501249999999999c-4.989 0 -7.4835 0 -9.10539375 -1.5174375 -1.62189375 -1.51725 -1.78783125 -4.0063125 -2.1196875 -8.98425L9.68765625 15.9375m25.62496875 0 -0.375 5.625" stroke="#192626" stroke-linecap="round" stroke-width="3"></path>
</svg>